<svg xmlns="http://www.w3.org/2000/svg" xmlns:xlink="http://www.w3.org/1999/xlink" version="1.1" width="150" height="50" viewBox="0 0 600 300" xml:space="preserve">
   <g transform="matrix(1 0 0 1 300 150)" id="066aad99-a4c2-4d95-89ab-6c95b7dec35e">
      <rect style="stroke: none; stroke-width: 1; stroke-dasharray: none; stroke-linecap: butt; stroke-dashoffset: 0; stroke-linejoin: miter; stroke-miterlimit: 4; fill: rgb(255,255,255); fill-rule: nonzero; opacity: 1; visibility: hidden;" vector-effect="non-scaling-stroke"  x="-300" y="-150" rx="0" ry="0" width="600" height="300" />
   </g>
   <g transform="matrix(6 0 0 6 300 150)" id="SvgjsG1188">
      <path style="stroke: none; stroke-width: 0; stroke-dasharray: none; stroke-linecap: butt; stroke-dashoffset: 0; stroke-linejoin: miter; stroke-miterlimit: 4; fill: rgb(33, 37, 41); fill-rule: nonzero; opacity: 1;"  transform=" translate(-54.61, -13.27)" d="M 7.52 5.66 C 12.44 5.66 14.64 9.22 14.7 12.82 C 14.719999999999999 14.42 14.299999999999999 16.08 13.399999999999999 17.38 L 15.059999999999999 19.02 L 13.2 20.88 L 11.5 19.2 C 10.44 19.88 9.1 20.24 7.52 20.24 C 2.539999999999999 20.24 0.33999999999999986 16.619999999999997 0.3199999999999994 12.979999999999999 C 0.2999999999999994 9.319999999999999 2.599999999999999 5.659999999999998 7.52 5.659999999999998 z M 7.52 8.04 C 4.22 8.04 2.88 10.68 2.92 13.04 C 2.96 15.34 4.48 17.799999999999997 7.52 17.799999999999997 C 10.68 17.799999999999997 12.2 15.139999999999997 12.1 12.739999999999998 C 12 10.479999999999999 10.82 8.04 7.52 8.04 z M 26.28 6.02 L 28.900000000000002 6.02 L 28.900000000000002 14.04 C 28.900000000000002 18.18 26.360000000000003 20.299999999999997 22.840000000000003 20.299999999999997 C 19.480000000000004 20.299999999999997 16.620000000000005 18.259999999999998 16.620000000000005 14.039999999999997 L 16.620000000000005 6.019999999999998 L 19.240000000000006 6.019999999999998 L 19.240000000000006 14.039999999999997 C 19.240000000000006 16.56 20.680000000000007 17.9 22.860000000000007 17.9 C 25.040000000000006 17.9 26.28000000000001 16.439999999999998 26.28000000000001 14.04 L 26.28000000000001 6.02 z M 34.12 20 L 31.499999999999996 20 L 31.499999999999996 6 L 34.12 6 L 34.12 20 z M 47.14 16.42 L 48.94 18.240000000000002 C 47.5 19.660000000000004 45.64 20.32 43.62 20.32 C 38.419999999999995 20.32 36.22 16.740000000000002 36.199999999999996 13.100000000000001 C 36.17999999999999 9.440000000000001 38.559999999999995 5.7200000000000015 43.62 5.7200000000000015 C 45.519999999999996 5.7200000000000015 47.32 6.440000000000001 48.76 7.860000000000001 L 47 9.56 C 46.08 8.66 44.84 8.24 43.62 8.24 C 40.239999999999995 8.24 38.78 10.76 38.8 13.100000000000001 C 38.82 15.420000000000002 40.16 17.840000000000003 43.62 17.840000000000003 C 44.839999999999996 17.840000000000003 46.22 17.340000000000003 47.14 16.42 z M 61.68 6 L 61.68 6.08 L 55.46 12.780000000000001 L 62.2 19.84 L 62.2 20 L 58.940000000000005 20 L 53.080000000000005 13.8 L 53.080000000000005 20 L 50.440000000000005 20 L 50.440000000000005 6 L 53.080000000000005 6 L 53.080000000000005 11.92 L 58.400000000000006 6 L 61.68000000000001 6 z M 70.10000000000001 13.940000000000001 L 70.10000000000001 17.540000000000003 L 74.14000000000001 17.540000000000003 C 75.22000000000001 17.540000000000003 76.76000000000002 17.180000000000003 76.76000000000002 15.860000000000003 C 76.76000000000002 14.600000000000003 75.22000000000001 13.940000000000003 74.14000000000001 13.940000000000003 L 70.10000000000001 13.940000000000003 z M 70.10000000000001 8.4 L 70.10000000000001 11.620000000000001 L 74.14000000000001 11.620000000000001 C 75.80000000000001 11.620000000000001 76.34000000000002 10.920000000000002 76.34000000000002 10.120000000000001 C 76.34000000000002 9.48 75.82000000000002 8.4 74.14000000000001 8.4 L 70.10000000000001 8.4 z M 74.14000000000001 6 C 76.90000000000002 6 78.96000000000001 7.24 78.96000000000001 10.059999999999999 C 78.96000000000001 11.139999999999999 78.44000000000001 12.18 77.14000000000001 12.759999999999998 C 78.78000000000002 13.259999999999998 79.38000000000001 14.999999999999998 79.38000000000001 15.879999999999999 C 79.38000000000001 19 77.04 20 74.14000000000001 20 L 67.50000000000001 20 L 67.50000000000001 6 L 74.14000000000001 6 z M 90.9 6.02 L 93.52000000000001 6.02 L 93.52000000000001 14.04 C 93.52000000000001 18.18 90.98 20.299999999999997 87.46000000000001 20.299999999999997 C 84.10000000000001 20.299999999999997 81.24000000000001 18.259999999999998 81.24000000000001 14.039999999999997 L 81.24000000000001 6.019999999999998 L 83.86000000000001 6.019999999999998 L 83.86000000000001 14.039999999999997 C 83.86000000000001 16.56 85.30000000000001 17.9 87.48000000000002 17.9 C 89.66000000000003 17.9 90.90000000000002 16.439999999999998 90.90000000000002 14.04 L 90.90000000000002 6.02 z M 98.44 6 L 102 11.780000000000001 L 105.72 6.000000000000001 L 108.9 6.000000000000001 L 108.9 6.120000000000001 L 103.32000000000001 14.22 L 103.32000000000001 20 L 100.68 20 L 100.68 14.219999999999999 L 95.30000000000001 6.119999999999999 L 95.30000000000001 5.999999999999999 L 98.44000000000001 5.999999999999999 z" stroke-linecap="round" />
   </g>
</svg>